<svg xmlns="http://www.w3.org/2000/svg" xmlns:xlink="http://www.w3.org/1999/xlink" style="isolation:isolate" viewBox="114 28.1 194.02 383.67"><defs><clipPath id="_clipPath_cXWoRkWZpu0jb9d8vJoW5T1qwdKsu5go"><rect width="450" height="450"/></clipPath></defs><g clip-path="url(#_clipPath_cXWoRkWZpu0jb9d8vJoW5T1qwdKsu5go)"><rect x="125.444" y="35.754" width="182.556" height="357.483" transform="matrix(1,0,0,1,0,0)" fill="rgb(247,178,76)"/><rect x="122.719" y="318.035" width="171.112" height="9.809" transform="matrix(1,0,0,1,0,0)" fill="rgb(248,189,92)"/><path d=" M 129.015 108.232 L 129.015 122.307 L 293.831 165 L 290.562 108.232 L 129.015 108.232 Z " fill="rgb(245,159,56)"/><path d=" M 129.015 34.982 L 129.015 49.057 L 293.831 91.751 L 290.562 34.982 L 129.015 34.982 Z " fill="rgb(245,159,56)"/><path d=" M 129.015 180.164 L 129.015 194.239 L 293.831 236.933 L 290.562 180.164 L 129.015 180.164 Z " fill="rgb(245,159,56)"/><path d=" M 129.015 252.097 L 129.015 266.172 L 293.831 308.865 L 290.562 252.097 L 129.015 252.097 Z " fill="rgb(245,159,56)"/><path d=" M 129.015 322.94 L 129.015 337.014 L 293.831 379.708 L 290.562 322.94 L 129.015 322.94 Z " fill="rgb(245,159,56)"/><rect x="125.444" y="175.26" width="171.112" height="9.809" transform="matrix(1,0,0,1,0,0)" fill="rgb(248,189,92)"/><rect x="128.169" y="103.327" width="171.112" height="9.809" transform="matrix(1,0,0,1,0,0)" fill="rgb(248,189,92)"/><rect x="122.719" y="247.192" width="171.112" height="9.809" transform="matrix(1,0,0,1,0,0)" fill="rgb(248,189,92)"/><rect x="114" y="389.968" width="194" height="21.798" transform="matrix(1,0,0,1,0,0)" fill="rgb(248,189,92)"/><rect x="290.562" y="28.125" width="17.438" height="383.64" transform="matrix(1,0,0,1,0,0)" fill="rgb(248,189,92)"/><rect x="114" y="28.125" width="17.438" height="383.64" transform="matrix(1,0,0,1,0,0)" fill="rgb(248,189,92)"/><rect x="122.719" y="28.125" width="185.281" height="15.258" transform="matrix(1,0,0,1,0,0)" fill="rgb(248,189,92)"/></g></svg>